<svg id="Layer_1" data-name="Layer 1" xmlns="http://www.w3.org/2000/svg" xmlns:xlink="http://www.w3.org/1999/xlink" viewBox="0 0 142.6 137.9"><defs><style>.cls-1{fill:none;}.cls-2{clip-path:url(#clip-path);}.cls-3,.cls-4{fill:#fff;}.cls-4,.cls-6{fill-rule:evenodd;}.cls-5{fill:#373737;}.cls-6{fill:#e2e2e2;fill-opacity:0.47;}</style><clipPath id="clip-path"><rect class="cls-1" y="15" width="122.9" height="122.9"/></clipPath></defs><title>ChatEZ_logo_btm</title><g class="cls-2"><path class="cls-3" d="M63.6,109.8c18.7,0,33.8-14.5,33.8-32.4S82.3,45,63.6,45,29.8,59.5,29.8,77.4,44.9,109.8,63.6,109.8Z"/><path class="cls-4" d="M101.6,29.7l8.8,8.8a6,6,0,0,1,0,8.4L103.3,54a44.08,44.08,0,0,1,4.4,11.8h9.2a6,6,0,0,1,6,6V84.3a6,6,0,0,1-6,6h-10a45.38,45.38,0,0,1-5.2,11.4l6.5,6.5a6,6,0,0,1,0,8.4l-8.8,8.8a6,6,0,0,1-8.4,0l-7.1-7.1a44.08,44.08,0,0,1-11.8,4.4v9.2a6,6,0,0,1-6,6H53.6a6,6,0,0,1-6-6v-10a45.38,45.38,0,0,1-11.4-5.2l-6.5,6.5a6,6,0,0,1-8.4,0l-8.8-8.8a6,6,0,0,1,0-8.4l7.1-7.1a44.08,44.08,0,0,1-4.4-11.8H6a6,6,0,0,1-6-6V68.6a6,6,0,0,1,6-6H16a45.38,45.38,0,0,1,5.2-11.4l-6.5-6.5a6,6,0,0,1,0-8.4l8.8-8.8a6,6,0,0,1,8.4,0L39,34.6a44.08,44.08,0,0,1,11.8-4.4V21a6,6,0,0,1,6-6H69.3a6,6,0,0,1,6,6V31a45.38,45.38,0,0,1,11.4,5.2l6.5-6.5A6,6,0,0,1,101.6,29.7ZM61.4,51.9A24.55,24.55,0,1,1,36.9,76.5,24.56,24.56,0,0,1,61.4,51.9Z"/><path class="cls-5" d="M59,53.3V49.7c-.4-.2-.9-.4-1.3-.6a7.68,7.68,0,0,1-3.2-9.5,7,7,0,0,1,1.7-2.5,6,6,0,0,1,2.5-1.6,7.17,7.17,0,0,1,2.9-.6,7.53,7.53,0,0,1,7,4.7,7.31,7.31,0,0,1,0,5.8,7,7,0,0,1-1.7,2.5A5.83,5.83,0,0,1,65.4,49c-.4.2-.8.4-1.3.6v3.6H82a9.71,9.71,0,0,1,9.7,9.7v1.4H95a5.08,5.08,0,0,1,5,5V80.8a5.08,5.08,0,0,1-5,5H91.7v1.3A9.71,9.71,0,0,1,82,96.8H57.5L42.9,109.5a1.66,1.66,0,0,1-2.7-1.4L41,96.8h-.1a9.77,9.77,0,0,1-9.7-9.7V85.8H27.9a5,5,0,0,1-5-5V69.4a5.08,5.08,0,0,1,5-5h3.3V63a9.71,9.71,0,0,1,9.7-9.7ZM74.8,64.7a5.9,5.9,0,1,1,0,11.8,5.9,5.9,0,1,1,0-11.8Zm-26.7,0a5.9,5.9,0,0,1,0,11.8,5.9,5.9,0,1,1,0-11.8Zm4,19.7c-.1-.1-.2-.1-.2-.2a1.22,1.22,0,0,1-.3-.9,1.61,1.61,0,0,1,.3-.9l.2-.2a2,2,0,0,1,2.4-.1,17.52,17.52,0,0,0,3.5,2,10.16,10.16,0,0,0,3.4.6,10.39,10.39,0,0,0,3.5-.7,15.8,15.8,0,0,0,3.6-2,2,2,0,0,1,2.4.1c.1.1.2.2.2.3a1.61,1.61,0,0,1,.3.9,1.23,1.23,0,0,1-.4.8c-.1.1-.2.2-.3.2a20.53,20.53,0,0,1-4.6,2.5,13.42,13.42,0,0,1-9.4.1A14.79,14.79,0,0,1,52.1,84.4ZM82,56.6H40.8A6.44,6.44,0,0,0,34.4,63V87.2a6.44,6.44,0,0,0,6.4,6.4h2a1.58,1.58,0,0,1,1.5,1.7l-.6,9.1L55.8,94a1.61,1.61,0,0,1,1.1-.5H82a6.44,6.44,0,0,0,6.4-6.4V63A6.38,6.38,0,0,0,82,56.6Z"/></g><path class="cls-6" d="M133.9,16.1l-6-6a4.1,4.1,0,0,0-5.8,0l-4.4,4.4a34.66,34.66,0,0,0-7.8-3.6V4.1A4.12,4.12,0,0,0,105.8,0H97.3a4.12,4.12,0,0,0-4.1,4.1v6.3a32.13,32.13,0,0,0-8,3L80.3,8.5a4.1,4.1,0,0,0-5.8,0L70,13h2.6a6,6,0,0,1,6,6V29a45.33,45.33,0,0,1,8.2,3.3A16.79,16.79,0,0,1,117.3,42a16.93,16.93,0,0,1-8.4,14.6,42.92,42.92,0,0,1,2.2,7.2h9.2a6,6,0,0,1,6,6v5.8c.1,0,.1-.1.2-.2l6-6a4.1,4.1,0,0,0,0-5.8L128,59.1a34.66,34.66,0,0,0,3.6-7.8h6.9a4.12,4.12,0,0,0,4.1-4.1V38.7a4.12,4.12,0,0,0-4.1-4.1H132a32.13,32.13,0,0,0-3-8l4.9-4.9A3.87,3.87,0,0,0,133.9,16.1Z"/></svg>